HIERARCHY
ROOT Pelvis
{
	OFFSET 0.000000 0.000000 0.000000
	CHANNELS 6 Xposition Yposition Zposition Xrotation Yrotation Zrotation
	JOINT LeftUpLeg_virtual
	{
		OFFSET 0.000000 0.000000 0.000000
		CHANNELS 3 Xrotation Yrotation Zrotation
		JOINT LeftUpLeg
		{
			OFFSET 18.735201 -5.666702 -4.541200
			CHANNELS 3 Xrotation Yrotation Zrotation
			JOINT LeftLeg
			{
				OFFSET -0.021200 -31.938179 0.493100
				CHANNELS 3 Xrotation Yrotation Zrotation
				JOINT LeftFoot
				{
					OFFSET 0.021200 -31.938179 -4.336299
					CHANNELS 3 Xrotation Yrotation Zrotation
					JOINT LeftToeBase
					{
						OFFSET 0.943001 -26.722000 15.023500
						CHANNELS 3 Xrotation Yrotation Zrotation
						End Site
						{
							OFFSET 0 0 0
						}
					}
				}
			}
		}
	}
	JOINT RightUpLeg_virtual
	{
		OFFSET 0.000000 0.000000 0.000000
		CHANNELS 3 Xrotation Yrotation Zrotation
		JOINT RightUpLeg
		{
			OFFSET -18.735201 -5.666702 -4.541200
			CHANNELS 3 Xrotation Yrotation Zrotation
			JOINT RightLeg
			{
				OFFSET 0.018946 -31.938133 0.493100
				CHANNELS 3 Xrotation Yrotation Zrotation
				JOINT RightFoot
				{
					OFFSET -0.018946 -31.938126 -4.336299
					CHANNELS 3 Xrotation Yrotation Zrotation
					JOINT RightToeBase
					{
						OFFSET -0.943001 -26.722004 15.023500
						CHANNELS 3 Xrotation Yrotation Zrotation
						End Site
						{
							OFFSET 0 0 0
						}
					}
				}
			}
		}
	}
	JOINT Hips_virtual
	{
		OFFSET 0.000000 0.000000 0.000000
		CHANNELS 3 Xrotation Yrotation Zrotation
		JOINT Hips
		{
			OFFSET -0.000000 -0.000000 -0.000000
			CHANNELS 3 Xrotation Yrotation Zrotation
			JOINT Spine
			{
				OFFSET 0.000000 10.199997 -0.299500
				CHANNELS 3 Xrotation Yrotation Zrotation
				JOINT Spine1
				{
					OFFSET 0.000000 11.900002 -1.516600
					CHANNELS 3 Xrotation Yrotation Zrotation
					JOINT Spine2
					{
						OFFSET 0.000000 13.600006 -2.842500
						CHANNELS 3 Xrotation Yrotation Zrotation
						JOINT Neck_virtual
						{
							OFFSET 0.000000 0.000000 0.000000
							CHANNELS 3 Xrotation Yrotation Zrotation
							JOINT Neck
							{
								OFFSET 0.000000 9.624100 -2.890100
								CHANNELS 3 Xrotation Yrotation Zrotation
								JOINT Head
								{
									OFFSET 0.000000 14.068802 -1.351900
									CHANNELS 3 Xrotation Yrotation Zrotation
									End Site
									{
										OFFSET 0 0 0
									}
								}
							}
						}
						JOINT LeftShoulder_virtual
						{
							OFFSET 0.000000 0.000000 0.000000
							CHANNELS 3 Xrotation Yrotation Zrotation
							JOINT LeftShoulder
							{
								OFFSET 15.263000 10.923401 -0.547700
								CHANNELS 3 Xrotation Yrotation Zrotation
								JOINT LeftArm
								{
									OFFSET 25.438599 -2.830597 -13.032500
									CHANNELS 3 Xrotation Yrotation Zrotation
									JOINT LeftForeArm
									{
										OFFSET 29.960503 0.000000 0.000000
										CHANNELS 3 Xrotation Yrotation Zrotation
										JOINT LeftHand
										{
											OFFSET 27.849251 0.000000 0.000000
											CHANNELS 3 Xrotation Yrotation Zrotation
											End Site
											{
												OFFSET 0 0 0
											}
										}
									}
								}
							}
						}
						JOINT RightShoulder_virtual
						{
							OFFSET 0.000000 0.000000 0.000000
							CHANNELS 3 Xrotation Yrotation Zrotation
							JOINT RightShoulder
							{
								OFFSET -15.263000 10.923401 -0.547700
								CHANNELS 3 Xrotation Yrotation Zrotation
								JOINT RightArm
								{
									OFFSET -25.438599 -2.830597 -13.032500
									CHANNELS 3 Xrotation Yrotation Zrotation
									JOINT RightForeArm
									{
										OFFSET -29.960503 0.000000 0.000000
										CHANNELS 3 Xrotation Yrotation Zrotation
										JOINT RightHand
										{
											OFFSET -27.849251 0.000000 0.000000
											CHANNELS 3 Xrotation Yrotation Zrotation
											End Site
											{
												OFFSET 0 0 0
											}
										}
									}
								}
							}
						}
					}
				}
			}
		}
	}
}
MOTION
Frames: 11
Frame Time: 0.03333333
-9.702836 74.054459 0.497589 0.000000 0.000000 0.000000 -6.979187 -24.613080 -0.609037 -51.965821 1.838208 17.438265 61.172445 -11.103805 -3.504569 6.156982 -10.504462 -20.526255 0.000000 0.000000 0.000000 8.938005 18.760269 3.775692 -16.425165 -1.171492 -7.942868 63.006760 -0.085519 -4.164389 -2.344780 -0.403642 5.734084 0.000000 0.000000 0.000000 3.681728 2.175727 1.578859 -3.435154 1.677243 4.861572 8.203304 -0.804529 -4.081332 6.618870 -0.541849 -3.188276 0.000000 0.000000 0.000000 5.136918 -1.130331 -1.618313 0.866022 -1.248602 1.070228 0.000000 0.000000 0.000000 3.493419 -1.867615 -4.167428 -3.969711 -20.842853 -7.456681 -57.965589 -16.249122 -53.314309 -36.443151 -71.523692 -32.116120 0.000000 0.000000 0.000000 3.479397 3.170650 -1.137283 0.093448 18.589369 -6.456544 -44.578363 14.088971 45.403303 -40.187877 62.228296 42.694939 0.000000 0.000000 0.000000 
-9.760253 75.767578 1.210011 0.000000 0.000000 0.000000 -5.743063 -24.476601 -0.838790 -50.286619 2.296312 16.931066 59.414238 -10.889238 -3.303171 4.915724 -10.289203 -19.912810 0.000000 0.000000 0.000000 9.393398 17.044682 3.904113 -15.751263 -1.723821 -7.903526 59.703250 -0.634799 -4.447913 -3.787579 -0.851463 4.677715 0.000000 0.000000 0.000000 4.017532 2.835592 1.500719 -2.877396 1.903283 4.699876 7.490865 -0.966728 -4.281842 6.018965 -0.561766 -3.213756 0.000000 0.000000 0.000000 3.746606 -1.331635 -1.787631 0.120610 -1.324533 0.926186 0.000000 0.000000 0.000000 2.754214 -1.604754 -4.061119 -4.476565 -19.567543 -7.226531 -52.632079 -18.175403 -50.027280 -25.830252 -69.654235 -22.113282 0.000000 0.000000 0.000000 2.979278 2.874292 -1.385684 -0.422700 16.670019 -7.182758 -36.134436 18.462114 39.344027 -31.149211 63.955596 33.785845 0.000000 0.000000 0.000000 
-9.747380 77.635017 1.956669 0.000000 0.000000 0.000000 -4.449303 -24.380394 -1.015421 -48.510848 2.729095 16.441261 57.673038 -10.622407 -3.083846 3.718500 -10.041806 -19.232843 0.000000 0.000000 0.000000 9.798916 15.103075 4.013119 -15.163860 -2.324619 -7.928713 56.451288 -1.084471 -4.705475 -5.171418 -1.232950 3.730473 0.000000 0.000000 0.000000 4.380287 3.488988 1.404178 -2.215091 2.090397 4.475164 6.749636 -1.049239 -4.434690 5.387010 -0.529435 -3.204421 0.000000 0.000000 0.000000 2.147172 -1.441170 -1.975845 -0.719937 -1.351983 0.775176 0.000000 0.000000 0.000000 2.001472 -1.250683 -3.904756 -4.951023 -18.009575 -6.760328 -46.321431 -19.633433 -45.923593 -16.352718 -66.645011 -13.298320 0.000000 0.000000 0.000000 2.376898 2.567768 -1.599193 -1.102266 14.653182 -7.743998 -26.175530 20.937185 31.892848 -20.548732 63.694041 23.364323 0.000000 0.000000 0.000000 
-9.669630 79.590431 2.711254 0.000000 0.000000 0.000000 -3.162788 -24.335703 -1.145021 -46.725355 3.120677 15.980286 56.010649 -10.328794 -2.851278 2.599576 -9.786964 -18.518977 0.000000 0.000000 0.000000 10.143523 12.985796 4.087320 -14.685228 -2.956827 -8.033527 53.404832 -1.398874 -4.914100 -6.425560 -1.520672 2.956506 0.000000 0.000000 0.000000 4.755884 4.115184 1.290996 -1.525105 2.217600 4.186595 5.995066 -1.036339 -4.524761 4.735240 -0.438174 -3.154605 0.000000 0.000000 0.000000 0.387027 -1.441415 -2.154210 -1.630510 -1.322432 0.631906 0.000000 0.000000 0.000000 1.278925 -0.806007 -3.688704 -5.366689 -16.179434 -6.033255 -39.037550 -20.447069 -41.114952 -8.590198 -62.667327 -6.279537 0.000000 0.000000 0.000000 1.693252 2.264018 -1.753899 -1.923855 12.588851 -8.046173 -15.508110 20.885991 24.070191 -10.640718 61.374659 13.744537 0.000000 0.000000 0.000000 
-9.537572 81.548653 3.447023 0.000000 0.000000 0.000000 -1.946169 -24.338020 -1.242514 -45.020372 3.464679 15.554496 54.490255 -10.041074 -2.616131 1.591546 -9.552704 -17.817380 0.000000 0.000000 0.000000 10.419891 10.771540 4.113552 -14.329660 -3.596819 -8.225638 50.721900 -1.549591 -5.053091 -7.469328 -1.688395 2.413595 0.000000 0.000000 0.000000 5.130288 4.694094 1.163809 -0.884095 2.254327 3.833242 5.250022 -0.923362 -4.540016 4.081111 -0.287456 -3.060754 0.000000 0.000000 0.000000 -1.462952 -1.328429 -2.291084 -2.576212 -1.234185 0.511735 0.000000 0.000000 0.000000 0.624647 -0.280217 -3.411120 -5.713208 -14.113797 -5.054417 -30.918969 -20.442582 -35.853029 -2.468627 -57.990116 -1.011805 0.000000 0.000000 0.000000 0.961890 1.977282 -1.832093 -2.843139 10.533854 -8.025291 -5.274138 18.281905 17.191315 -2.941107 57.358084 6.483150 0.000000 0.000000 0.000000 
-9.365571 83.417915 4.139531 0.000000 0.000000 0.000000 -0.852891 -24.375955 -1.326641 -43.477849 3.760970 15.166314 53.166759 -9.791059 -2.392419 0.722278 -9.364095 -17.177103 0.000000 0.000000 0.000000 10.625239 8.559175 4.083501 -14.101551 -4.216942 -8.503022 48.544306 -1.518016 -5.108777 -8.222204 -1.712794 2.144645 0.000000 0.000000 0.000000 5.491155 5.208124 1.026120 -0.356079 2.162181 3.415807 4.542901 -0.717003 -4.473552 3.445940 -0.083021 -2.922228 0.000000 0.000000 0.000000 -3.317631 -1.112059 -2.357586 -3.516422 -1.092232 0.428067 0.000000 0.000000 0.000000 0.065706 0.308716 -3.078751 -5.995753 -11.874887 -3.866149 -22.257688 -19.504660 -30.518600 2.346871 -52.902656 2.818280 0.000000 0.000000 0.000000 0.225956 1.720639 -1.826973 -3.798690 8.544293 -7.665090 3.661410 13.700412 12.211047 2.394042 52.186457 1.749502 0.000000 0.000000 0.000000 
-9.170218 85.114006 4.769620 0.000000 0.000000 0.000000 0.079138 -24.441566 -1.412829 -42.159947 4.010985 14.817180 52.077928 -9.601645 -2.192922 0.011881 -9.237833 -16.636937 0.000000 0.000000 0.000000 10.761885 6.453584 3.994756 -13.995023 -4.789347 -8.854472 46.976822 -1.297546 -5.079096 -8.617725 -1.575497 2.168489 0.000000 0.000000 0.000000 5.828362 5.644576 0.882171 0.014616 1.902445 2.938566 3.904108 -0.433334 -4.325362 2.852328 0.164227 -2.741898 0.000000 0.000000 0.000000 -5.087346 -0.813311 -2.332776 -4.409409 -0.906802 0.390192 0.000000 0.000000 0.000000 -0.384081 0.936318 -2.705254 -6.229392 -9.544545 -2.533822 -13.456291 -17.635675 -25.544827 6.196290 -47.666715 5.544906 0.000000 0.000000 0.000000 -0.467433 1.503875 -1.744808 -4.722725 6.669772 -7.003796 11.004923 7.981243 9.398251 5.886769 46.367231 -0.996823 0.000000 0.000000 0.000000 
-8.968737 86.571510 5.326333 0.000000 0.000000 0.000000 0.832384 -24.538380 -1.506879 -41.099758 4.213855 14.510380 51.239229 -9.481603 -2.024761 -0.529254 -9.179372 -16.214994 0.000000 0.000000 0.000000 10.837231 4.549592 3.850445 -13.994970 -5.290128 -9.262242 46.070862 -0.895151 -4.976116 -8.617344 -1.265530 2.473130 0.000000 0.000000 0.000000 6.133812 5.998352 0.736602 0.205304 1.448923 2.410447 3.362154 -0.094205 -4.103347 2.321215 0.440173 -2.526371 0.000000 0.000000 0.000000 -6.686429 -0.460239 -2.207046 -5.216188 -0.691402 0.401997 0.000000 0.000000 0.000000 -0.722928 1.574592 -2.307958 -6.431260 -7.214452 -1.131079 -4.935006 -14.976790 -21.298801 9.336414 -42.489627 7.440426 0.000000 0.000000 0.000000 -1.074215 1.332240 -1.603625 -5.553329 4.950265 -6.126917 16.860337 1.886158 8.499910 8.115556 40.309953 -2.382952 0.000000 0.000000 0.000000 
-8.777573 87.749580 5.808755 0.000000 0.000000 0.000000 1.411893 -24.684164 -1.602341 -40.296668 4.364984 14.251994 50.644152 -9.424857 -1.887320 -0.900704 -9.183140 -15.905270 0.000000 0.000000 0.000000 10.863245 2.918574 3.658295 -14.078866 -5.702765 -9.705283 45.816578 -0.332120 -4.824834 -8.220163 -0.782428 3.014523 0.000000 0.000000 0.000000 6.401158 6.273863 0.593988 0.213470 0.802346 1.844732 2.940453 0.276576 -3.823073 1.869409 0.729593 -2.285670 0.000000 0.000000 0.000000 -8.039624 -0.083910 -1.983256 -5.903216 -0.461124 0.461691 0.000000 0.000000 0.000000 -0.957333 2.195154 -1.904458 -6.613834 -4.975414 0.273462 2.957528 -11.770381 -17.986943 11.933972 -37.513970 8.709494 0.000000 0.000000 0.000000 -1.559938 1.206079 -1.428869 -6.244316 3.414308 -5.148243 21.454464 -4.052750 9.034097 9.508778 34.332117 -2.909109 0.000000 0.000000 0.000000 
-8.611222 88.632347 6.225769 0.000000 0.000000 0.000000 1.843893 -24.907665 -1.682793 -39.717936 4.457450 14.049206 50.268987 -9.414006 -1.773500 -1.110832 -9.235240 -15.682514 0.000000 0.000000 0.000000 10.855507 1.600510 3.430021 -14.219128 -6.020240 -10.161506 46.144475 0.356382 -4.657921 -7.465827 -0.139787 3.722437 0.000000 0.000000 0.000000 6.625871 6.484775 0.458430 0.053231 0.000067 1.257591 2.655347 0.655991 -3.506005 1.508087 1.017750 -2.032258 0.000000 0.000000 0.000000 -9.087448 0.284783 -1.675928 -6.444462 -0.231459 0.562248 0.000000 0.000000 0.000000 -1.097775 2.771817 -1.510205 -6.781389 -2.908686 1.624065 9.985187 -8.286777 -15.633120 14.084850 -32.822122 9.504089 0.000000 0.000000 0.000000 -1.904289 1.120953 -1.247574 -6.770358 2.076960 -4.185268 24.986449 -9.534549 10.485027 10.340071 28.673824 -2.932267 0.000000 0.000000 0.000000 
-8.481294 89.226387 6.593520 0.000000 0.000000 0.000000 2.170429 -25.239941 -1.727881 -39.306677 4.485460 13.906946 50.079866 -9.426501 -1.673426 -1.175103 -9.317405 -15.512702 0.000000 0.000000 0.000000 10.831610 0.601643 3.181282 -14.386007 -6.245705 -10.608681 46.935434 1.123596 -4.507819 -6.430154 0.632037 4.512457 0.000000 0.000000 0.000000 6.805758 6.651002 0.333338 -0.249755 -0.884496 0.665821 2.515129 1.023000 -3.176378 1.242270 1.291198 -1.779454 0.000000 0.000000 0.000000 -9.791869 0.617749 -1.309141 -6.823609 -0.017298 0.692292 0.000000 0.000000 0.000000 -1.155858 3.282296 -1.137474 -6.930219 -1.080836 2.879584 16.017833 -4.759684 -14.122496 15.837487 -28.452645 9.938943 0.000000 0.000000 0.000000 -2.102842 1.068016 -1.082903 -7.127053 0.937502 -3.336513 27.593566 -14.431370 12.396287 10.773212 23.506187 -2.696748 0.000000 0.000000 0.000000 
